<?xml version="1.0" encoding="UTF-8" standalone="no"?>
<!DOCTYPE svg PUBLIC "-//W3C//DTD SVG 1.1//EN" "http://www.w3.org/Graphics/SVG/1.1/DTD/svg11.dtd">
<svg width="100%" height="100%" viewBox="0 0 2335 370" version="1.1" xmlns="http://www.w3.org/2000/svg" xmlns:xlink="http://www.w3.org/1999/xlink" xml:space="preserve" xmlns:serif="http://www.serif.com/" style="fill-rule:evenodd;clip-rule:evenodd;stroke-linejoin:round;stroke-miterlimit:2;">
    <g transform="matrix(1,0,0,1,-3382.632169,-815.220806)">
        <g>
            <g transform="matrix(1,0,0,1,2715.943665,455.951815)">
                <path d="M1095.977,475.076L1095.977,448.016L1157.809,492.468L1095.977,541.345L1095.977,514.657C1038.307,508.888 997.563,514.726 995.884,547.35L1074.747,547.35C1071.457,584.64 1040.356,596.812 987.488,589.323C975.499,633.413 949.317,661.179 905.343,668.486L905.343,622.94C905.343,622.94 934.989,617.196 945.406,572.842C962.372,500.602 977.281,496.91 996.512,483.753C1024.389,464.682 1095.977,475.076 1095.977,475.076Z" style="fill:rgb(15,157,144);"/>
                <g transform="matrix(1,0,0,1,-0,5.856653)">
                    <path d="M816.776,545.837C865.657,545.837 905.343,585.522 905.343,634.404C905.343,683.285 865.657,722.971 816.776,722.971C767.894,722.971 728.209,683.285 728.209,634.404C728.209,585.522 767.894,545.837 816.776,545.837ZM816.776,586.452C790.311,586.452 768.825,607.939 768.825,634.404C768.825,660.869 790.311,682.355 816.776,682.355C843.241,682.355 864.727,660.869 864.727,634.404C864.727,607.939 843.241,586.452 816.776,586.452Z"/>
                </g>
                <g transform="matrix(1,0,0,1,429.59997,5.856653)">
                    <path d="M816.776,545.837C865.657,545.837 905.343,585.522 905.343,634.404C905.343,683.285 865.657,722.971 816.776,722.971C767.894,722.971 728.209,683.285 728.209,634.404C728.209,585.522 767.894,545.837 816.776,545.837ZM816.776,586.452C790.311,586.452 768.825,607.939 768.825,634.404C768.825,660.869 790.311,682.355 816.776,682.355C843.241,682.355 864.727,660.869 864.727,634.404C864.727,607.939 843.241,586.452 816.776,586.452Z"/>
                </g>
                <path d="M815.612,448.016C913.234,321.908 1118.805,331.606 1205.446,468.131C1398.306,447.134 1475.584,663.397 1330.721,668.486C1333.587,653.251 1334.743,637.649 1333.024,621.431C1388.323,623.244 1346.343,491.394 1178.527,513.55C1122.192,383.693 950.943,376.055 861.367,457.15L815.612,448.016Z"/>
                <path d="M1157.809,623.809L1005.42,623.809C999.381,642.568 987.471,656.924 971.836,668.486L1162.247,668.486C1155.886,658.376 1155.373,642.716 1157.809,623.809Z"/>
                <path d="M925.599,513.877C778.738,322.229 557.017,584.368 729.566,665.074L728.816,618.97C656.128,506.465 871.269,423.366 905.343,576.24L925.599,513.877Z"/>
            </g>
            <g transform="matrix(0.901873,0,0,0.901873,323.513364,-287.452067)">
                <g transform="matrix(375.447513,0,0,375.447513,5995.708719,1560.924629)">
                </g>
                <text x="4264.03px" y="1560.925px" style="font-family:'Arial-BoldMT', 'Arial', sans-serif;font-weight:700;font-size:375.448px;">FreeCohe</text>
            </g>
        </g>
    </g>
</svg>
